/* XPM */
static char * 0_xpm[] = {
"10 14 10 1",
" 	c None",
".	c #F2031E",
"+	c #040CF2",
"@	c #030CF2",
"#	c #020CF2",
"$	c #030CF1",
"%	c #030DF2",
"&	c #030BF2",
"*	c #040BF2",
"=	c #030CF3",
"..........",
"..........",
"...+@#....",
"..@...@...",
".$@...%%..",
".&@...*@..",
".@.....=..",
".@.....&..",
".&@...*@..",
".$@...%%..",
"..@...@...",
"...@@#....",
"..........",
".........."};
