/* XPM */
static char * 1_xpm[] = {
"10 14 5 1",
" 	c None",
".	c #F2031E",
"+	c #030CF2",
"@	c #030BF2",
"#	c #0306F2",
"..........",
"..........",
"....+.....",
"...@+.....",
"..#.+.....",
"....+.....",
"....+.....",
"....+.....",
"....+.....",
"....+.....",
"....+.....",
"..#+++@...",
"..........",
".........."};
