/* XPM */
static char * 2_xpm[] = {
"10 14 9 1",
" 	c None",
".	c #F2031E",
"+	c #0305F1",
"@	c #0305F2",
"#	c #0306F3",
"$	c #0306F2",
"%	c #0406F2",
"&	c #0204F3",
"*	c #0406F1",
"..........",
"..........",
"...+@#....",
"..$..@....",
"......$...",
"......$...",
".....+....",
"....%@....",
"....@.....",
"...&......",
"...@......",
"..@@@@*...",
"..........",
".........."};
