/* XPM */
static char * 3_xpm[] = {
"10 14 10 1",
" 	c None",
".	c #F2031E",
"+	c #0405F3",
"@	c #0305F2",
"#	c #0205F1",
"$	c #0406F1",
"%	c #0306F2",
"&	c #0204F2",
"*	c #0304F2",
"=	c #0306F3",
"..........",
"..........",
"...+@#....",
"..$...%...",
"......&...",
"......%...",
"....@@....",
"......%...",
"......@...",
"......%...",
"..*...%...",
"...=@@....",
"..........",
".........."};
