/* XPM */
static char * 4_xpm[] = {
"10 14 7 1",
" 	c None",
".	c #F2031E",
"+	c #2303F2",
"@	c #2303F3",
"#	c #2403F2",
"$	c #2404F2",
"%	c #2304F2",
"..........",
"..........",
".....+....",
"....@#....",
"....$+....",
"...+.+....",
"...%.+....",
"..+..+....",
".++++++...",
".....+....",
".....+....",
".....+....",
"..........",
".........."};
