/* XPM */
static char * 5_xpm[] = {
"10 14 10 1",
" 	c None",
".	c #F2031E",
"+	c #2303F2",
"@	c #2404F2",
"#	c #2203F2",
"$	c #2303F3",
"%	c #2304F1",
"&	c #2303F1",
"*	c #2204F2",
"=	c #2203F3",
"..........",
"..........",
"...+++@...",
"...#......",
"...#......",
"...+++....",
".....$....",
"......%...",
"......&...",
"......*...",
"...@.$@...",
"...=++....",
"..........",
".........."};
