/* XPM */
static char * 6_xpm[] = {
"10 14 9 1",
" 	c None",
".	c #F2031E",
"+	c #2303F2",
"@	c #2304F2",
"#	c #2304F1",
"$	c #2303F3",
"%	c #2203F2",
"&	c #2303F1",
"*	c #2203F1",
"..........",
"..........",
"....++....",
"...+......",
"..@.......",
"..@.......",
"..+#+$....",
"..+...%...",
"..+...+...",
"..&...+...",
"...+..*...",
"....++....",
"..........",
".........."};
