/* XPM */
static char * 7_xpm[] = {
"10 14 7 1",
" 	c None",
".	c #F2031E",
"+	c #2304F2",
"@	c #2303F2",
"#	c #2404F2",
"$	c #2203F2",
"%	c #2303F1",
"..........",
"..........",
"..+@@@@...",
"......#...",
".....+....",
".....@....",
".....@....",
"....$@....",
"....@.....",
"....@.....",
"....%.....",
"....#.....",
"..........",
".........."};
