/* XPM */
static char * 8_xpm[] = {
"10 14 3 1",
" 	c None",
".	c #F2031E",
"+	c #0306F2",
"..........",
"..........",
"...++++...",
"..+....+..",
"..+....+..",
"...+..+...",
"...++++...",
"...+..+...",
"..+....+..",
"..+....+..",
"...+..+...",
"...++++...",
"..........",
".........."};
