/* XPM */
static char * 9_xpm[] = {
"10 14 6 1",
" 	c None",
".	c #F2031E",
"+	c #2302F2",
"@	c #2303F2",
"#	c #2203F2",
"$	c #2403F2",
"..........",
"..........",
"...+@#....",
"..+$..+...",
"..$...$...",
"..+...+...",
"..$+..+...",
"...$@@$...",
"......+...",
"......$...",
"..@..+....",
"...@@$....",
"..........",
".........."};
