/* XPM */
static char *af3150ae66c04366e097db3b0505e81d2Iq5IKbi1hgrhKXU[] = {
/* columns rows colors chars-per-pixel */
"32 32 35 1 ",
"  c None",
". c #17111A",
"X c #17111B",
"o c #24222A",
"O c #2D4A6F",
"+ c #2D4A70",
"@ c #33587E",
"# c #36597E",
"$ c #36597F",
"% c #40688E",
"& c #40698E",
"* c #40698F",
"= c #427FBE",
"- c #427FBF",
"; c #6891B6",
": c #59A4BE",
"> c #508BC9",
", c #5791CF",
"< c #5C9AD9",
"1 c #64A5CF",
"2 c #60A5D0",
"3 c #69AED9",
"4 c #6BA7E6",
"5 c #A5C9CF",
"6 c #82CCE6",
"7 c #9ED6E6",
"8 c #8BC3FF",
"9 c #A8DEEE",
"0 c #B9DEE6",
"q c #B0E6F4",
"w c #C3E7EE",
"e c #CCEFF4",
"r c #D1F3F9",
"t c #D6F7FC",
"y c #D9FAFF",
/* pixels */
"                                ",
"                                ",
"               ..               ",
"              .e6.              ",
"            ..e361.             ",
"          ..e33661.             ",
"         .e33666661.            ",
"        .13,6666661.            ",
"        .y37e996666,.           ",
"        .1>eee96664,.           ",
"         .11ee6:<<<<*.          ",
"         .1>996=***$..          ",
"    ..    .>76=**&#.XXX         ",
"   .te.   ..64***O..XX          ",
"   .e61.   .6;..O,=..           ",
"  .560q1.   ..XX.r6=...         ",
"  .5ttq4=X  XX..r666-,,XX       ",
"  .1666=$X   Xe166666-,,1.      ",
"   .118*..X Xr169ee966->11.     ",
"   ..,*...XX*=66eeee99-=*..     ",
"    Xo.X.X.*>>9weeee71==@.XX    ",
"     XXX..*=>116eeee62>*XXX     ",
"      .. .*==11e6ee96-*@XXX     ",
"          ..==11r6996=@.XX      ",
"          XXXX>21e666>XXXX      ",
"           XXXXX1<664XXXX       ",
"             XXX...6=.XX        ",
"               X......X         ",
"                 XXXXXX         ",
"                    XX          ",
"                                ",
"                                "
};
