/* XPM */
static char *bb18354f533c462f849add717dbef25390cpKffMyRkFN5sH[] = {
/* columns rows colors chars-per-pixel */
"32 32 12 1 ",
"  c None",
". c #17111A",
"X c #17111B",
"o c #372538",
"O c #4F2D39",
"+ c #5C3139",
"@ c #5F3239",
"# c #753939",
"$ c #99572F",
"% c #8B6637",
"& c #FFBF36",
"* c #FFD94C",
/* pixels */
"                                ",
"                                ",
"                                ",
"                                ",
"        ......                  ",
"       .**&$++...               ",
"      .*&&$+#####...            ",
"     .*&&$+#########...         ",
"     .*&$+##########$**...      ",
"    .*&$+##########$*&&$+#.     ",
"    .*&$+#########$*&&$+###.    ",
"   .*&$+#########$*&&$+#####.   ",
"   .$&$+########$*&&$+######.   ",
"   .*$o++#######$*&$+######o..  ",
"   .*&$o+$$####$*&&$+####oo+.X  ",
"   .*&$+$**$$##$*&$+###oo+++.X  ",
"   .*&$+$*&**$o$*&$+#oo++@@+XX  ",
"   .*&$+$*%o&$+o$$ooo++@@@@+XX  ",
"   .*&$+$*&%&$+$*&$++@@@@##+XX  ",
"   .*&$+$*&&&$+$*&$+@@@####+XX  ",
"   .*&$+O$$&&$+$*&$++######+XX  ",
"   .*&$+#++$$+#$*&$+#######+XX  ",
"   .*&$+###++##$*&$+#######+XX  ",
"    ...++######$*&$+#######+XX  ",
"    XXX...+++##$*&$+#####++.XX  ",
"     XXXXX...++$*&$+###+@X.XXX  ",
"        XXXXX...*&$+#++....XX   ",
"           XXXXX..$++..X..XX    ",
"              XXXX...XXXXX      ",
"                 XXXXXXX        ",
"                   XXX          ",
"                                "
};
