/* XPM */
static char *cb168a4b0446438accb260e6f16340e5vm7TaZXOPwhzDuBQ[] = {
/* columns rows colors chars-per-pixel */
"32 32 11 1 ",
"  c None",
". c #17111A",
"X c #17111B",
"o c #DA772E",
"O c #894740",
"+ c #9E5647",
"@ c #EF9F32",
"# c #FFBF36",
"$ c #FFA070",
"% c #FFE556",
"& c #FFD1AB",
/* pixels */
"                                ",
"                                ",
"       ...           ...        ",
"      .%%%.         .#@@.       ",
"     .%###%..     ..#@@@@.      ",
"    .%#++##%%.....##@@++@o.     ",
"    .%+oO#+##%%%%%#@+@Oo+o.     ",
"    .#ooO#+.$.$.$.$.+@Oooo.X    ",
"     ...O#.X$X$X$X$X.@O...XX    ",
"     XXX.#.X&X&X&X&X.@.XXXXX    ",
"      ..%.XX&X&X&X&X .@.XXX     ",
"      .%#.XX&X&X&X&X .@o.       ",
"     .%#.XX &X&X&X&X  .@o.      ",
"    .%#.XXX &X&X&X&X  X.@o.     ",
"    .%#.XX  &X&X&X&X   .@o.     ",
"   .%##.X   &X&X&X&X   .@@o.    ",
"   .%#.XX   &X&X&X&X    .@o.    ",
"   .%#.XX   &X&X&X&X    .@o.X   ",
"   .%#.X    &X&X&X&X    .@o.X   ",
"    .##.    &X&X&X&X   .@o.XX   ",
"    .###.   &X&X&X&X  .@@o.XX   ",
"     .###.. $X$X$X$X..@@o.XX    ",
"     X.####.$.$.$.$.@@@o.XXX    ",
"      X.########@@@@@oo.XXX     ",
"       X..ooo@@@@@ooo..XXX      ",
"        XX...ooooo...XXXX       ",
"         XXXX.....XXXXXX        ",
"           XXXXXXXXXXX          ",
"              XXXXX             ",
"                                ",
"                                ",
"                                "
};
