/* XPM */
static char * coll17_xpm[] = {
"32 32 10 1",
" 	c None",
".	c #17111A",
"+	c #FFDE5C",
"@	c #FFBF36",
"#	c #9E5647",
"$	c #FFDE5D",
"%	c #CB8C37",
"&	c #17111B",
"*	c #76403F",
"=	c #9F5B43",
"                                ",
"                                ",
"                                ",
"                                ",
"                                ",
"             .....              ",
"          ...++++@...           ",
"        ..+++#####@@@..         ",
"       .++###@@@@@###@@.        ",
"      .+##@@@@@@@@@@@##@.       ",
"     .+#@@@@@@@#@@@@@@@#@.      ",
"    .+#@@#@@@@#$#@@@@#@@#@.     ",
"   .+#@@@##@@#$$$#@@##@@@#@.    ",
"   .+#@@@#$##$$$$$##$#@@@#@.    ",
"   .+#@@@#$$$$$$$$$$$#@@@#%.&   ",
"   .@#@@@@#$$$$$$$$$#@@@@#%.&   ",
"   .@#@@@@#$$$$$$$$$#@@@@#%.&   ",
"   .*@#@@@@#########@@@@#%*.&   ",
"   .=*@#@@@@@@@@@@@@@@@#%*=.&   ",
"    .%*@##@@@@@@@@@@@##%*=.&&   ",
"    .=%*@@##@@@@@@@##%%*=%.&&   ",
"     .%=**@@#######%%**%=.&&    ",
"     &.=%=**@@@@@%%**%=%.&&&    ",
"      &..=%=*******%=%..&&&     ",
"       &&...=%=%=%=...&&&&      ",
"        &&&&.......&&&&&&       ",
"          &&&&&&&&&&&&&         ",
"             &&&&&&&            ",
"                                ",
"                                ",
"                                ",
"                                "};
