/* XPM */
static char * coll27_xpm[] = {
"32 32 19 1",
" 	c None",
".	c #17111A",
"+	c #B2BCC2",
"@	c #9196A4",
"#	c #64666E",
"$	c #3D3B44",
"%	c #17111B",
"&	c #753939",
"*	c #838795",
"=	c #402227",
"-	c #562B2E",
";	c #7884AB",
">	c #2A243B",
",	c #5B5977",
"'	c #3E375C",
")	c #322C4D",
"!	c #312B4C",
"~	c #211C31",
"{	c #221D31",
"                                ",
"                                ",
"                ......          ",
"               .+@#+@#.         ",
"              .+#+..@$@.        ",
"             .$@$.%%.@#.        ",
"            .&+*.%%%.$@#.       ",
"           .&=&.%%%  .$@.       ",
"           .-=.%%%   .+@.%      ",
"          .&=.%%%   .+#.%%      ",
"          .-=.%%    .$@.%%      ",
"         .&=.%%    .+@.%%       ",
"         .-=.%%..  .#$.%%       ",
"        .&=.%% .;. .>>;.        ",
"        .-=.%% .,>.#>;,.        ",
"       .&=.%%  .>')>;,.%%       ",
"       .-=.%%  .'''>;,....      ",
"      .&=.%....'''''>>>;;;.     ",
"      .-=.%.;;;>''''!))>,.%     ",
"     .-=.%% .,,>'''!!))).%%%    ",
"     .-=.%% %.>'''!!))).%%%     ",
"    .-=.%%   .'''>~>))).%%      ",
"    .-=.%%   .>'>;;;>).%%       ",
"   .-=.%%   .;,>>;;,>{,.%       ",
"   .-=.%%   .,...;,,..,.        ",
"    ..%%    ..%%.;,.%%..%       ",
"    %%%%     %%%%.,.%%%%%       ",
"     %%      %%  %.%%  %%       ",
"                  %%%           ",
"                   %            ",
"                                ",
"                                "};
