/* XPM */
static char *_f5de6b685ed4a9880c07a14b8a0b5d8JqHYRGOkaUT8bJGT[] = {
/* columns rows colors chars-per-pixel */
"32 32 8 1 ",
"  c None",
". c #17111A",
"X c #17111B",
"o c #753939",
"O c #9D5B3E",
"+ c #FF9611",
"@ c #FFBF36",
"# c #FFF275",
/* pixels */
"                                ",
"                                ",
"     ...                ...     ",
"    .##@.              .##@.    ",
"    .#@@.              .#@@.    ",
"    .@++.X             .@++.X   ",
"     .O.XX              .O.XX   ",
"    .##@.X             .##@.X   ",
"    .#@@.              .@++.    ",
"     .++.X              .O.XX   ",
"     X.O@.             .#@.XX   ",
"     .##@.            .#@+.X    ",
"     .#@+.X           .@+.XX    ",
"      .+O.X           .O.XXX    ",
"      ..##.          .##O.X     ",
"       .#@@..     ...#@@+.      ",
"       .@++O#. ...##@O@+.XX     ",
"        ...#@@.#@O#@@+..XXX     ",
"        XX.@++O#@+.@+.XXXX      ",
"         XX....oo.X..XXXX       ",
"           XXX.OO.XXXXX         ",
"            X.###@. XX          ",
"            .###@@@.            ",
"            .##Oo@+.            ",
"            .#O@@o+.X           ",
"            .#@Oo++.X           ",
"             .@+++.XX           ",
"             X....XXX           ",
"              XXXXXX            ",
"               XXXX             ",
"                                ",
"                                "
};
