/* XPM */
static char * coll29_xpm[] = {
"32 32 13 1",
" 	c None",
".	c #17111A",
"+	c #A36153",
"@	c #753939",
"#	c #3E375C",
"$	c #3A2D48",
"%	c #8D4237",
"&	c #17111B",
"*	c #372538",
"=	c #B96951",
"-	c #AA4D35",
";	c #5C3139",
">	c #66363D",
"                                ",
"                                ",
"                           ..   ",
"                       .. .+@.  ",
"                      .#$.+%@.  ",
"                      .$%#$@.&& ",
"                       .#$*.&&& ",
"                      .#$*%$.&  ",
"                ...  .#$*.$*.   ",
"               .==-..#$*.&..&&  ",
"              .=%%%-#$*.&&&&&&  ",
"             .=%%%@#$*.&&& &&   ",
"            .=%%%@#$*-.&&       ",
"            .=%%@#$*@%-.        ",
"            .-%@#$*@%%-.        ",
"         ...=%@#$*@%%%-.&       ",
"       ..==-%@#$*@%%%-.&&       ",
"      .==%;%@#$*@%%%-.&&&       ",
"     .=%%;%%#$*@%---.&&&        ",
"    .=%;%;>#$*@%-...&&&         ",
"    .=%;;%@$*%%-.&&&&&          ",
"    .-%%%%%@>%;-.&&&&           ",
"    .-%%%@%%;;%-.&              ",
"     .-@*%%;%%-.&&              ",
"     .#*@%%;;%-.&&              ",
"      .*-%%%%-.&&               ",
"      &..----.&&&               ",
"       &&....&&&                ",
"        &&&&&&&                 ",
"          &&&&                  ",
"                                ",
"                                "};
