/* XPM */
static char * coll30_xpm[] = {
"32 32 11 1",
" 	c None",
".	c #17111A",
"+	c #372538",
"@	c #B97937",
"#	c #C65733",
"$	c #824238",
"%	c #FFBF36",
"&	c #17111B",
"*	c #FFFFFF",
"=	c #6EEEFF",
"-	c #3898FF",
"                                ",
"                                ",
"                                ",
"                        ..      ",
"                       .+@.     ",
"                       .#+@.    ",
"                      .##$+@.   ",
"                    ..##$$$+.   ",
"                   .%+#$$$..&&  ",
"                  .+%%+$$.&&&&  ",
"                 .##+%@+.&&&&   ",
"               ..####+@@.&&     ",
"             ..#####$$+.&&      ",
"            .%%+###$$$.&&&      ",
"          ..+%%%+#$$$.&&&       ",
"         .###++%%+$$.&&&        ",
"        .######+%@+$.&&         ",
"       .#######$+@@.&&          ",
"     ..+######$$+@@.&&          ",
"    .%%%++###$$$$+.&&           ",
"    .%%%%%+#$$$$$.&&&           ",
"   .+++%%@@+$$$$$.&&            ",
"   .*==++@@+$$$$.&&             ",
"   .*==--+@@+$$.&&&             ",
"    .===-+@@+$.&&&              ",
"    .===--+@@.&&&               ",
"     .=---+@@.&&                ",
"     &..--+..&&                 ",
"      &&...&&&&                 ",
"       &&&&&&&                  ",
"         &&&                    ",
"                                "};
