/* XPM */
static char * coll06_xpm[] = {
"32 32 21 1",
" 	c None",
".	c #17111A",
"+	c #FFDD74",
"@	c #753939",
"#	c #E0B467",
"$	c #C7935C",
"%	c #CE945A",
"&	c #B1743E",
"*	c #B2743E",
"=	c #B7743D",
"-	c #612B2B",
";	c #D8A360",
">	c #B77B44",
",	c #B67B44",
"'	c #B37741",
")	c #D8A659",
"!	c #D6A659",
"~	c #D9AB5F",
"{	c #89483C",
"]	c #C48C55",
"^	c #7E3B37",
"                                ",
"                                ",
"                                ",
"                                ",
"                                ",
"    ........................    ",
"   .++@#@++@#@++@#@+@##@+@$#.   ",
"   .++@#@++@#@++@#@+@##@+@##.   ",
"   .%%@&@%%@*@%%@&@%@&&@%@==.   ",
"   .------------------------.   ",
"   .+++++++++++++++++;;;;;;;.   ",
"   .------------------------.   ",
"   .%%@>@%%@,@%%@,@%@',@+@)).   ",
"   .;;@,@;;@,@;;@!@+@~{@{@]].   ",
"   .++@#@++@#@++@#@{@{#@%@..    ",
"   .++@#@++@#@++@{@+@&&...      ",
"   .++@#@++@#@++@#@%@..         ",
"   .++@#@++@#@{{@#^..           ",
"   .++@#@++@#@++@&.             ",
"   .++@#@++@{@++^.              ",
"   .++@#@+{@#@%%.               ",
"   .++@#@{+@&^..                ",
"   .++@{@++^..                  ",
"   .++@#@%%.                    ",
"   .+{@&^..                     ",
"   .{+@&^.                      ",
"   .++^..                       ",
"   .%%.                         ",
"    ..                          ",
"                                ",
"                                ",
"                                "};
