/* XPM */
static char * coll13_xpm[] = {
"32 32 14 1",
" 	c None",
".	c #17111A",
"+	c #F3966A",
"@	c #CF7957",
"#	c #372538",
"$	c #C57C5A",
"%	c #753939",
"&	c #9B5446",
"*	c #17111B",
"=	c #AB5F4B",
"-	c #E14141",
";	c #EC9167",
">	c #B2BCC2",
",	c #3E375C",
"                                ",
"                                ",
"             ........           ",
"      ....  .++++++++..         ",
"     .++++. .+@@#@@@@@@.        ",
"    .+@@@@+.$@@##@@@@@@@.       ",
"    .+%%@@@+@#@#%#@#@@@@&.      ",
"    .+@@%@@@#%#%%#@%#@@&.*      ",
"    .+@@%@@@#%%#%%#%#@=.***     ",
"    .+@@@%@@#%%%##%%#@&..*      ",
"    .+@@@%@@@@@@@@@@@@@@=.      ",
"    .+@@@%@@@@@@@@@@@@@@&.      ",
"    .+@@%@@@@@@@@@@@@@@@&.*     ",
"    .+@@%@@@@@@%%%@@@@@&.**     ",
"    .+@@%@@@@@%@@@%%@@@&.**     ",
"    .+@@@%@@%%@@@@@@%@@@&.      ",
"    .+@@@@%%@@@@@@@@@%@@&.      ",
"    .+@@@@@@@@@@@@@@@@@@&.*     ",
"   .+@@@%@%@%@@@@--@@--@&.*     ",
"   .;@@%>%>%>%@@@@--@--@&.*     ",
"   .;@@%>>>>>%@@@@@---@@@&.     ",
"    .&@@%>,>%@@@@@-----@@&.     ",
"    *.&@%>,>%@@@@@--@---@&.*    ",
"     *.&%>>>%@&@@@@@@@@-@&.*    ",
"      *.&@@&.&.&@@@@@@@@@@&.    ",
"       *.&&.*.*.&&&&&&&&&&&.    ",
"        *..*****...........**   ",
"         **** * *************   ",
"          **     ***********    ",
"                                ",
"                                ",
"                                "};
