/* XPM */
static char *_f4151c5734a45abc28133b85ef03c9dOBNsswxBAD5rzhQE[] = {
/* columns rows colors chars-per-pixel */
"32 32 20 1 ",
"  c None",
". c #150D13",
"X c #17111A",
"o c #17111B",
"O c #54272B",
"+ c #55272B",
"@ c #56272B",
"# c #57282B",
"$ c #5F292B",
"% c #73312D",
"& c #74322D",
"* c #7A352E",
"= c #7F372F",
"- c #B63D1F",
"; c #8B3F33",
": c #A34530",
"> c #C44D29",
", c #DA772E",
"< c #D4643C",
"1 c #E8C4AA",
/* pixels */
"                                ",
"                                ",
"       XXXXX                    ",
"      X11,,>X   XXXXX           ",
"      X;,,>OX  X11,,>X          ",
"      X,;;O>XXX#,,>>##XXX       ",
"      X;<<>=XXX,###O;1,,>X      ",
"      X<;*;;;;O#<<>#;,,>>OX     ",
"      .;>#11,,,>#;;#,;;;#>X     ",
"      X>;O;,,>>O#>:#;<<<>*Xo    ",
"      X;>O,;;;O>#&*#<;;;;>Xo    ",
"      X>=O;<<<>*#::#;<>>>*XX    ",
"      X;:O<;;;;>#%%#<;;;*:Xo    ",
"      X>&O;<<>>*#::#;>>>:&Xo    ",
"     X;;;OO=;;;:#%%#>;;&&:Xo    ",
"    X1,,,>>#>>:%+::+;>>::&Xo    ",
"    o;,>>>##;;&:+%%@>*;;;$Xo    ",
"    .,;;;O>#>::%+::@*;1,,>>X    ",
"    X;<<<>*#;=%:@&%@:@;,>-@X    ",
"    X<;;;;>#::;;;@@%&@,;;@>Xo   ",
"    o;<<>>*#%$,,,>>@:@;<<>*Xo   ",
"    o<;;;;>#X#;,>>@@&@<;;;>Xo   ",
"    o;>>>>%.oX,;;@:@:@;<>>=Xo   ",
"    o>;;;*:ooX;<<>&@&@<;;*:Xo   ",
"    X;>>>:&XoX<;;&:.X#;>>:&Xo   ",
"    X>;;;&:Xo X>::XooX>;*&:Xo   ",
"     X>>::Xoo oXXXooooX>::Xoo   ",
"     oXXXXooo  ooooo  oXXXooo   ",
"      oooooo    ooo    ooooo    ",
"       oooo             ooo     ",
"                                ",
"                                "
};
