/* XPM */
static char * coll25_xpm[] = {
"32 32 15 1",
" 	c None",
".	c #17111A",
"+	c #FFFFFF",
"@	c #ADA1A4",
"#	c #DBD5D7",
"$	c #87797B",
"%	c #17111B",
"&	c #B6AAAD",
"*	c #F6DF37",
"=	c #FFC735",
"-	c #D9762E",
";	c #AE450C",
">	c #C55D29",
",	c #753939",
"'	c #531418",
"                                ",
"                                ",
"                                ",
"                          ...   ",
"                        ..+@.   ",
"                      ..#+@$.%  ",
"                     .+#+@$.%%  ",
"                    .+#+@&$.%%  ",
"                   .+#+@&&.%%   ",
"                  .+#+@&&$.%%   ",
"                  .#+@&&$.%%    ",
"                 .#+@&&$.%%%    ",
"                .#+@&$$.%%%     ",
"               .#+@&$..%%%      ",
"              .#+@&$.%%%%       ",
"             .#+@&$.%%%%        ",
"            .#+@&$.%%%          ",
"          ...+@&$.%%%           ",
"         .**=.&$.%%%            ",
"         .==--.$.%%             ",
"         .;--->.%%              ",
"        .,,;->>.%%              ",
"      ..,,'....%%               ",
"     .*=;'.%%%%%%               ",
"    .==->.%%%%%%                ",
"    .--->.%%                    ",
"     .>>.%%                     ",
"     %..%%%                     ",
"      %%%%                      ",
"       %%                       ",
"                                ",
"                                "};
