/* XPM */
static char *dc65b0f6ecdc4d3599d17995e9df6b0eQTeUnb78zDA6Am9u[] = {
/* columns rows colors chars-per-pixel */
"32 32 8 1 ",
"  c None",
". c #17111A",
"X c #17111B",
"o c #D0642C",
"O c #8E5652",
"+ c #FFBF36",
"@ c #D98750",
"# c #FFD04B",
/* pixels */
"                                ",
"                                ",
"                                ",
"                                ",
"                                ",
"                                ",
"                                ",
"           ........             ",
"         ..@@@@@@@@..           ",
"       ..@@@@@@@@@@@@..         ",
"      .@@@@@@@@@@@@@@@@.        ",
"     .@@@oooooooooooo@@@.       ",
"    .@@oo............oo@@.      ",
"   .#Oo..XXXXXXXXXXXX..oO+.     ",
"   .+#..XXXXXXXXXXXXXXX.++.     ",
"   .++#..X           ..+++.X    ",
"   .+++##............+++++.X    ",
"    .++++#########+++++++.XX    ",
"    X.++++++++++++++++++.XXX    ",
"     X.++++++++++++++++.XXX     ",
"      X.++++++++++++++.XXX      ",
"       X..++++++++++..XXX       ",
"        XX..........XXXX        ",
"         XXXXXXXXXXXXXX         ",
"           XXXXXXXXXX           ",
"                                ",
"                                ",
"                                ",
"                                ",
"                                ",
"                                ",
"                                "
};
