/* XPM */
static char *ca4380620d4345d780c557a3aad8e905Vu7GF0lyyILYOYQT[] = {
/* columns rows colors chars-per-pixel */
"32 32 19 1 ",
"  c None",
". c #17111A",
"X c #17111B",
"o c #8E5652",
"O c #CC6E4B",
"+ c #EB9F3E",
"@ c #FFBF36",
"# c #FFF275",
"$ c #3860A1",
"% c #4481B7",
"& c #599EB7",
"* c #3381D7",
"= c #3898FF",
"- c #419AE0",
"; c #5FCADF",
": c #63DDFF",
"> c #6EEEFF",
", c #FFE5AF",
"< c white",
/* pixels */
"                                ",
"                                ",
"           ........             ",
"          .==*==*==.            ",
"         .==>->>-:==.           ",
"         .$%>>*-:-$$.           ",
"          .>>-#<-;;..X          ",
"          .$>*>>*;$.XX          ",
"         .Oo$*>>*$oO.           ",
"        .++O..&&..O++.          ",
"       .+@@.XX..XX.@@+.         ",
"      .,@@..XXXXXXX.@@@.        ",
"     .,@@.XXX  XX  X.@@@.       ",
"     .,@.XXX        X.@@.       ",
"    .,@@.XX          .@@@.      ",
"    .,@.XX            .@@.      ",
"    .,@.XX            .@@.X     ",
"    .@@.X             .@@.X     ",
"    .,@.X             .@@.X     ",
"    .@@O.            .O@@.X     ",
"     .@O.            .O@.XX     ",
"     .@@O.          .O@@.XX     ",
"      .@+O.        .O+@.XX      ",
"      X.@+O..    ..O+@.XXX      ",
"       X.@+OO....OO+@.XXX       ",
"        X.@++OOOO++@.XXX        ",
"         X..@@@@@@..XXX         ",
"          XX......XXXX          ",
"           XXXXXXXXXX           ",
"             XXXXXX             ",
"                                ",
"                                "
};
