/* XPM */
static char *_3c365d3cdb74322fcc56019fde6568axzRpH7Szoc6armFc[] = {
/* columns rows colors chars-per-pixel */
"32 32 23 1 ",
"  c None",
". c #17111A",
"X c #17111B",
"o c #753939",
"O c #4D566E",
"+ c #545A6B",
"@ c #4E5D79",
"# c #556076",
"$ c #B4664E",
"% c #CF7957",
"& c #FFA070",
"* c #5A7497",
"= c #53709A",
"- c #797A92",
"; c #797B94",
": c #7D8FB6",
"> c #909BB4",
", c #E7A581",
"< c #FFD1AB",
"1 c #95B0D8",
"2 c #BFCCDE",
"3 c #D3FAFF",
"4 c white",
/* pixels */
"                                ",
"                                ",
"                    ...         ",
"                   .<<<..       ",
"                  .<<<<<<.      ",
"                  .<<<<<<<.     ",
"                 .<<<<<<<<.     ",
"                .<<<<<<<<<<.    ",
"               .<<<<<<<<<<<.    ",
"              .<<<<<<<<<<<%.X   ",
"             .3oo<<<<<<<%%o.X   ",
"            .3112o<<<%%ooo..X   ",
"         ...o#11:o,%ooo...XXX   ",
"       ..<<<,o#11;oo...XXXXX    ",
"     ..<<<<<<,o#::o.XXXXXXX     ",
"    .%<<<<<<<<,o#+#:.XXX        ",
"   .<&%<<<<<<<&oO@-1:.          ",
"  .4<<<%<<<<<&o.::=>11.         ",
"  .4<&%<%<<&oo.X.:::*:1.        ",
"  .<&<&$<%%o,,.XX.11#*::..      ",
"  .<&&&%$<,,,.XX X.11##:::.     ",
"   .%&%&%$,,,.XX  X.1###...     ",
"   .<%&%&$<,.XX    .###.XXXX    ",
"    .<$&&$<,.XX     .###.XXX    ",
"    ..<$$<<.XX      X.#.X       ",
"     X.<<<,.XX       X..XX      ",
"      X....XX         XXX       ",
"       XXXXXX          XX       ",
"        XXXX                    ",
"                                ",
"                                ",
"                                "
};
