/* XPM */
static char * coll16_xpm[] = {
"32 32 11 1",
" 	c None",
".	c #17111A",
"+	c #2B5B98",
"@	c #243B61",
"#	c #4EBAFF",
"$	c #3898FF",
"%	c #322B42",
"&	c #372538",
"*	c #17111B",
"=	c #B2BCC2",
"-	c #FFFFFF",
"                                ",
"                                ",
"      ........                  ",
"     .+@##@###........          ",
"    .++@##@$$$########.         ",
"   .++%@#$@$$$$$$$$$$$.         ",
"  .++%+@$$@$$$$$$$$$$$$.        ",
"  .+%++@$$@$$&&&$$$$$$$.        ",
"   .++++@$$@$$$$&&&&&&$.*       ",
"   .++++@$$@$$$$$$$$$$$.*       ",
"   .++++@$$@$$$$$$$$$$$+.       ",
"   .++++@$$@$$&&$$$$$$$+.       ",
"    .+++@$$@$$$$&&&&&&$+.*      ",
"    .++++@$$@$$$$$$$$$$$+.      ",
"    .++++@$$@$$$$$$$$$$$+.      ",
"     .+++@$$@$$$$$$$$$$$+.*     ",
"     .++++@$$@$$$$$$$$$$$+.     ",
"     .++++@$$@$$$$$$$$$$$+.     ",
"      .+++@$$@$$$$$$$$$$$+.*    ",
"      .+++@$$@$$$$$$$$$$$+.*    ",
"      .++%+@++@++$$$$$$$$++.    ",
"      .+%++@@@@@@++++++++++.    ",
"       .++@=-----@@@@@@@@@+.*   ",
"       .+@====----------==.**   ",
"        .+@@@@===========.***   ",
"        .+++++@@@@@@@@@@@.**    ",
"         .....+++++++++++.*     ",
"         *****...........**     ",
"          *****************     ",
"               ***********      ",
"                                ",
"                                "};
