/* XPM */
static char * coll18_xpm[] = {
"32 32 22 1",
" 	c None",
".	c #17111A",
"+	c #F0F2F3",
"@	c #F0F1F3",
"#	c #B7BFC9",
"$	c #9CA6BF",
"%	c #525278",
"&	c #372538",
"*	c #17111B",
"=	c #4E4660",
"-	c #3E375C",
";	c #7C839F",
">	c #8E9AB4",
",	c #443F64",
"'	c #67667C",
")	c #3B2F4C",
"!	c #8A8FAA",
"~	c #8893AE",
"{	c #545171",
"]	c #504B69",
"^	c #473E58",
"/	c #42414C",
"                                ",
"                                ",
"      .....                     ",
"     .+@##$.   .....            ",
"     .%##$&.  .@@##$.           ",
"     .#%%&$.*.%##$$&=...        ",
"     .%$$$-...#%%%&%+##$.       ",
"     .$%%%%%%&&$$$&%##$$&.      ",
"     .%$%++###$&%%&#%%%&$.      ",
"     .$%&%##$$&&$;&%$$$$-.*     ",
"     .%$&#%%%&$&--&$%%%%$.*     ",
"     .$-&%$$$$-&;;&%$$$$-.*     ",
"     .%;&$%%%%;&--&$%%%-;.*     ",
"     .>-&%$$$$-&;;&%$$$;-.*     ",
"    .%%%&&%%%,;&--&$%%--;.*     ",
"   .+###$$&$$;-&;;&%$$;;-.*     ",
"   .%#$$$&&%%-'&-)&$-%%%&.*     ",
"   .#%%%&$&$;;)&;'&-%+##$$.     ",
"   .%$$$$-&%-)'&-)&;&%#$$&.     ",
"   .$%%%%!&~'%%%&&&{&#%%&$.*    ",
"   .%$$$$-&-&###$$&;&%$$$-.*    ",
"   .$%%%%!&.&%#$$-&]&$%%%!.*    ",
"   .%$$$$-.*.#%%-;&'&%$$$-.*    ",
"   .$%%%-'.*.%$$;)&^&$%%-'.*    ",
"   .%$$$;).*.$%%)'..&-$$;).*    ",
"   .$%%%-'.* /$;'.**.$--)'.*    ",
"    .$$;'.** *...****.$;'.**    ",
"    *....***  *****  *...***    ",
"     ******    ***    *****     ",
"      ****             ***      ",
"                                ",
"                                "};
