/* XPM */
static char * coll20_xpm[] = {
"32 32 9 1",
" 	c None",
".	c #17111A",
"+	c #6F6E8D",
"@	c #504E74",
"#	c #17111B",
"$	c #FFBF36",
"%	c #3E375C",
"&	c #D0642C",
"*	c #753939",
"                                ",
"                                ",
"                                ",
"                                ",
"              ..                ",
"             .+@.               ",
"             .+@.               ",
"            .+@.@.              ",
"            .@.#.@.             ",
"           .+@.#.@.             ",
"    ..     .@.## .@.            ",
"   .$$.   .@.### .%.            ",
"   .$$.   .@.##   .%..          ",
"   .$$.# .@.##    .%&$.         ",
"    .&.#.@%.##     .$$$.        ",
"    .&$..%.##      .$$$&.       ",
"    .$$*$%..#    ..$&$$$&.      ",
"    .$*$$*$$.....$$$$*$$&&.     ",
"     .$$*$$$$$$$$$$$*$*$&&&.    ",
"     .$*&$$$$$$$$$$&$$$*&&&&.   ",
"      .&$$$$$$$$$$$$$$*&*&&&.   ",
"      #.&&$$$$$$$$$$$&&&&*..##  ",
"       #.&&&$$$$$$$&&&&&..####  ",
"        #..&&&&&&&&&&&..#####   ",
"         ##..&&&&&&&..#####     ",
"          ###.......#####       ",
"            ###########         ",
"              #######           ",
"                                ",
"                                ",
"                                ",
"                                "};
