/* XPM */
static char * coll31_xpm[] = {
"32 32 14 1",
" 	c None",
".	c #17111B",
"+	c #17111A",
"@	c #FFBF36",
"#	c #B0B4BD",
"$	c #9C6364",
"%	c #97754B",
"&	c #D5DADE",
"*	c #7884AB",
"=	c #D9A5A7",
"-	c #E14141",
";	c #773039",
">	c #AF313E",
",	c #90283B",
"  ...                           ",
"                                ",
"                                ",
"                                ",
"                                ",
"              ++++++++          ",
"         +++++@@@@@@@@++        ",
"       +++@@@@@@@@@@@@@@+       ",
"     ++##+@@@@@@@@@@@$$%%+      ",
"    +&##*+%%%%%%%@@@$=-;%%+     ",
"    +&#***+++++++%%@$>,;%%+     ",
"     +++++.......++%;;;%%%+.    ",
"     ..............+@@@@%%+.    ",
"      .....       ..+@@@%%+.    ",
"                    .+@@@%+.    ",
"                     +@@@%+.    ",
"                     +@@@%+.    ",
"                     +@@@%+.    ",
"                     +@@@%+.    ",
"                     +@@@+..    ",
"                     +@@%+..    ",
"                     +@@%+.     ",
"                    +@@@%+.     ",
"                    ++++%+.     ",
"                    +&##+..     ",
"                    +&#*+..     ",
"                    +#*+..      ",
"                    +#*+..      ",
"                     ++..       ",
"                     ....       ",
"                      ..        ",
"                                "};
