/* XPM */
static char * coll14_xpm[] = {
"32 32 22 1",
" 	c None",
".	c #17111A",
"+	c #FFF5CE",
"@	c #FFDE5C",
"#	c #FFBF36",
"$	c #753939",
"%	c #372538",
"&	c #A25948",
"*	c #492B38",
"=	c #17111B",
"-	c #B7684F",
";	c #4A2E3D",
">	c #FFB772",
",	c #9E5647",
"'	c #D58960",
")	c #4A2B38",
"!	c #6B3639",
"~	c #8E4B42",
"{	c #CB8C37",
"]	c #A26F37",
"^	c #2D1F2F",
"/	c #76403F",
"                                ",
"                                ",
"     .....    ..  ...           ",
"    .++@@#.  .$%..$$$.          ",
"    .&@@#$.  .$$%$$$$*.         ",
"    .@&&$%.= .$*%$$$**%..       ",
"    .-##;>>. .$%$$$**%@@#.      ",
"    .#,,&;>'.$*%$$*%%*%##$.     ",
"    .,#&;%;')%%*$*%****%$#.     ",
"    .#,;>>>%'%>%*%***%%##,.=    ",
"    .,#!%%''%>>'%%*%%,,,,#.=    ",
"    .#,!,#%%;%%''%%!,####~.=    ",
"    .,{!%%;;$;;%%~~!#,,,~{.=    ",
"    .#~%$$$$$$$;;%{!,###{~.=    ",
"    .~%$$$$$$$$$;;%!#,,~~{.=    ",
"    .%$$$$$$$$$$$;%!,##{{~.=    ",
"    .%$$$$$$$$$$$;;%#$&&&$.=    ",
"    .$$$$$$$$$$$$;;%~&+@@##.    ",
"    .$$$$$$$$$$$$$;%{!&@##$.    ",
"   .$$$$$$$$$$$$$$;;%!@&&$#.=   ",
"   .$$$$$$$$$$$$$$;;%!,###~.=   ",
"  .$$$$$$$$$$$$$$*;;%!#,,,{.=   ",
"  .$$$$$$$$$$$$$*;;;%!,###~.=   ",
"  .$$$$$$$$$$$$;;;;;%!#,,~].=   ",
"   ^*$$$$$$$;;*;;;;..!,##{/.=   ",
"   =.;;$$$;;;;;;;;.==.#,~~].=   ",
"    =..;;;;;;;;;..====.#{].==   ",
"     ==.........====  =...===   ",
"      =============    =====    ",
"        =========       ===     ",
"                                ",
"                                "};
