/* XPM */
static char * coll33_xpm[] = {
"32 32 22 1",
" 	c None",
".	c #17111A",
"+	c #FFFFFF",
"@	c #7884AB",
"#	c #63A5EA",
"$	c #8DB1D5",
"%	c #3E375C",
"&	c #17111B",
"*	c #B2BCC2",
"=	c #F0BE52",
"-	c #595B81",
";	c #D9BE7C",
">	c #D8914D",
",	c #372538",
"'	c #737F93",
")	c #555C82",
"!	c #8C6D4D",
"~	c #8B4840",
"{	c #753939",
"]	c #689351",
"^	c #39855A",
"/	c #505D83",
"                                ",
"                                ",
"                                ",
"              .......           ",
"           ...++@@@@@.          ",
"          .++#$%%%@@.&          ",
"         .+@%%%***..&&..        ",
"        .+@%***@@.&&&.*#.       ",
"       .+@%*@@==-.&&.@*#.  .    ",
"       .#%*@;@@=-.&.#@@.&&.@.   ",
"      .#$%*@@@@>--.*@-.&&.@@.   ",
"      .$%*@=@@@>-,*@-.&&.*%@.&  ",
"      .'%*@=>>>-,*@-,&&&.*%@.&  ",
"      .'%**----,@@-,-...@*%@.&  ",
"      .)%*...-,@#-,---@@@*%@.&  ",
"      .)..&&&.@%@,!>>==@@*%#.&  ",
"       .&&&&.@%@,->@@@>@*%#).&  ",
"       &&&&.~{@.-->@@@@@*%$.&&  ",
"        & .~{,.&.->@@@@@*%$.&&  ",
"         .~{,.&&.->>@@@*%#).&   ",
"        .~{,.&&&.*@@@**%#).&&   ",
"       .~{,.&&&.*****%%#).&&&   ",
"      .,{,.&&& .%%%%%#').&&&    ",
"     .]^,.&&& ./)//)))..&&&     ",
"    .]^,.&&&   .......&&&&      ",
"   .]^,.&&&    &&&&&&&&&&       ",
"   .],.&&&      &&&&&&&         ",
"   ...&&&                       ",
"    &&&&                        ",
"    &&&                         ",
"                                ",
"                                "};
