/* XPM */
static char * coll19_xpm[] = {
"32 32 16 1",
" 	c None",
".	c #17111A",
"+	c #FFF5CE",
"@	c #FFDE5C",
"#	c #FFBF36",
"$	c #A25948",
"%	c #753939",
"&	c #17111B",
"*	c #AC6F38",
"=	c #B7684F",
"-	c #8E4B42",
";	c #9E5647",
">	c #6B3639",
",	c #CB8C37",
"'	c #76403F",
")	c #A26F37",
"                                ",
"                                ",
"      .....                     ",
"     .++@@#.   .....            ",
"     .$@@#%.  .++@@#.           ",
"     .@$$%#.&.$@@##*%...        ",
"     .=###-...@$$$%;+@@#.       ",
"     .#;;$$$$%%###>$@@##%.      ",
"     .;#$++@@@#%;;>@$$$%#.      ",
"     .#;>$@@##%>#,>;####;.&     ",
"     .;#>@$$$%#>-->#;;;;#.&     ",
"     .#;>;####;>,,>;####-.&     ",
"     .;,>#;;;;,>-->#;;;-,.&     ",
"     .#->;####->,,>;###,-.&     ",
"    .$$$%%-;;;,>-->#;;--,.&     ",
"   .+@@@##%##,'>,,>;##,,-.&     ",
"   .$@###%>;;-)>-'>#%$$$%.&     ",
"   .@$$$%#>#,,'>,)>-$+@@##.     ",
"   .=####;>--')>''>,>$@##%.     ",
"   .#;;;;,>,)$$$%%>->@$$%#.&    ",
"   .;####->-%@@@##%,>;###-.&    ",
"   .#;;;;,>.>$@##%>->#;;;,.&    ",
"   .;####'.&.@$$%,>,>;###-.&    ",
"   .#;;;-).&.;##,'>->#;;-).&    ",
"   .;###,'.&.#;;-)..>;##,'.&    ",
"   .#;;;-).& .#,).&&.#;--).&    ",
"    .##,).&& &...&&&&.#,).&&    ",
"    &....&&&  &&&&&  &...&&&    ",
"     &&&&&&    &&&    &&&&&     ",
"      &&&&             &&&      ",
"                                ",
"                                "};
