/* XPM */
static char *_ba4bc93fe2c4e64d1c2ac0ce55cb94aJoBqLSaqAKyXVTdI[] = {
/* columns rows colors chars-per-pixel */
"32 32 18 1 ",
"  c None",
". c #17111A",
"X c #17111B",
"o c #5D1426",
"O c #7A213A",
"+ c #734538",
"@ c #626C75",
"# c #A9303D",
"$ c #E9613E",
"% c #955843",
"& c #A05E47",
"* c #B86C4F",
"= c #E14141",
"- c #CF7957",
"; c #EC8A2D",
": c #918DA1",
"> c #B2BCC2",
", c white",
/* pixels */
"                                ",
"                                ",
"             ......             ",
"           ..%-*;&*..           ",
"          .,> -;--X:@.          ",
"           .>.&-&;.:.X          ",
"           .>,,::::@.XX         ",
"            .@++++@.XX          ",
"            .>+*;+:.XX          ",
"            .>.XXX:.X           ",
"           .>,,,XXX:.           ",
"          .>,,,,   X:.          ",
"         .>,,,,,X   X:.         ",
"        ., ,,,XXX    X:.        ",
"       ., X,.XXXX     X:.       ",
"      ., .X X$$$$$=    X:.      ",
"     ., XX $$========   X:.     ",
"     .,.X$$============  :.     ",
"     .,#$===============O:.X    ",
"     .>##==============#O:.X    ",
"      .>###==========##O:.XX    ",
"      .>#####======####o:.XX    ",
"       .>#############o:.XX     ",
"       X.>###########o:.XXX     ",
"        X.:########oo:.XXX      ",
"         X.::OOOooo::.XXX       ",
"          X..::::::..XXX        ",
"           XX......XXXX         ",
"            XXXXXXXXXX          ",
"              XXXXXX            ",
"                                ",
"                                "
};
