/* XPM */
static char * coll32_xpm[] = {
"32 32 16 1",
" 	c None",
".	c #17111A",
"+	c #EC8484",
"@	c #E14141",
"#	c #7A213A",
"$	c #17111B",
"%	c #94293C",
"&	c #482439",
"*	c #9E2C3C",
"=	c #372538",
"-	c #FFFFFF",
";	c #FFD1AB",
">	c #B29A82",
",	c #FFBB8A",
"'	c #928270",
")	c #FFA268",
"                                ",
"                                ",
"                                ",
"         ..........             ",
"       ..+@#+@@@#+@...          ",
"      .+#@........#+@#..        ",
"     .#@@.$$$$$$$$....@@.       ",
"     .@#.$$$$.....$$$$.#@.      ",
"    .+@.$$$..+@#+@...$$.@#.     ",
"    .##.$$.+#@...@#@@. $.@%.    ",
"   .+@.$$.#@..$$$....@. $.#.    ",
"   .@@#..+#.$$$$$$$$$.#. .%%.   ",
"    .#@@#@@.$$$   $$$.@.  .#.   ",
"    .+##...$$         .@. .%.$  ",
"    .@@.$$$$$        .@#. .&.$  ",
"    .##.$$$$      ...#@.$.**.$  ",
"    .+@.$     ....@#@@#.$.&*.$  ",
"     .#@.    .%@#@@....$.**.$$  ",
"     .@#.   .#%....$$$$.*&.$$$  ",
"     .#==.  .%.$$$$$$$..*.$$$   ",
"      .+#.  .#&.$$$$ .**&.$$    ",
"      .@#=.  .*.    .*&..$$     ",
"       .=-;. $.*.. .&*.$$$$     ",
"       .-;>;. $.&*.**.$$$$      ",
"        .;;>,. $.**&.$$$        ",
"        .>;,'). $...$$$         ",
"        .;>)'.). $$$$$          ",
"        .,').$.$  $$$           ",
"         ...$$$$$               ",
"         $$$$$ $                ",
"          $$$                   ",
"                                "};
