/* XPM */
static char *_a62312bf85c48d0a93619f173ab3e86fc8kvRjqrkxV75bK[] = {
/* columns rows colors chars-per-pixel */
"32 32 14 1 ",
"  c None",
". c #17111A",
"X c #17111B",
"o c #2D364A",
"O c #556076",
"+ c #5A6681",
"@ c #5F6D8E",
"# c #637297",
"$ c #7387BF",
"% c #87A9DF",
"& c #B9C3DF",
"* c #9CCCFF",
"= c #C3D4EF",
"- c #CEE6FF",
/* pixels */
"                                ",
"                                ",
"              ....              ",
"            ..%%%%..            ",
"           .*%$$$$$$.           ",
"          .-$......$$.          ",
"         .-$..XX.XX.$$.         ",
"         .%.XXXXXXXX.$.         ",
"        .=$.XX      .$#.        ",
"        .%$.X       .$#.        ",
"        .$@..       .$+.X       ",
"         .#..      .$O.XX       ",
"         ..-%. .. .=%.XXX       ",
"          .%O#.=%.=$O.XX        ",
"         .=$o#-$O#%$o#.         ",
"         .%$#.%$o#.$$#.         ",
"          .@.X.@$.X.@.XX        ",
"          .$.XX.@.X.%.XX        ",
"         .%.XX .$.X.%$.         ",
"         .$.XX .$.X .$.         ",
"        .%.XX  .$.X .$#.        ",
"       ..$.XX..$$.X.%$#.        ",
"     ..=$#.X.=%$#.X .$$.X       ",
"       .$.XX .$$.XX.%$$#.       ",
"     ..$#.XX X.#.X.%$.##.       ",
"     .&#O.X  .$#.X ..X.O.X      ",
"      ...XX .&#O.X XXX..XX      ",
"      XXXXX  ....X  XX XXX      ",
"       XXX   XXXXX     XX       ",
"              XXXX              ",
"                                ",
"                                "
};
