/* XPM */
static char *_dddaaade0cf488b81b985e659086bedERDLOrIRTrOajnjg[] = {
/* columns rows colors chars-per-pixel */
"32 32 11 1 ",
"  c None",
". c #17111A",
"X c #17111B",
"o c #9D5546",
"O c #EF9F32",
"+ c #FFDD34",
"@ c #2B5586",
"# c #3894D1",
"$ c #389AD5",
"% c #6BEEE8",
"& c white",
/* pixels */
"                                ",
"                                ",
"             ....               ",
"           ..o++o..             ",
"        ...o++oo++o...          ",
"       .&&+++++++++OOo.         ",
"      .&++ooooooooooOOo.        ",
"      .++o@#$$$$$$%%oOO.        ",
"      .+o@$$$$$$$%%%%oO..       ",
"      .+o$$$$$$$&%%%#oO.X       ",
"      .+o$$$$$$&&%%$$oO.X       ",
"      .+o$$$$$&&&%$$$oO.X       ",
"      .+o$$$$%&&&$$$#oO.X       ",
"      .+o#$$%%&&$$$$#oO.X       ",
"      .+o#$&%%&$$$$$%oO.X       ",
"      .+o#&&%%$$$$$%%oO.X       ",
"      .+o%&&%$$$$$&%%oO..       ",
"      .+o%&&$$$$$&&%#oO.X       ",
"      .+o%&$$$$$&&&$#oO.X       ",
"      .+o%$$$$$%&&$$#oO.X       ",
"      .+o$$$$$%%&$$$#oO.X       ",
"      .Oo@$$$%%%$$$$@oO.X       ",
"      .OOo@#%%%####@oOO.X       ",
"      .oOOooooooooooOOO.X       ",
"       .oOOOOOOOOOOOOO.XX       ",
"       ....oOOooOOo...XXX       ",
"        XXX..oOOo..XXXXX        ",
"         XXXX....XXXXXX         ",
"            XXXXXXXX            ",
"              XXXX              ",
"                                ",
"                                "
};
