/* XPM */
static char * coll21_xpm[] = {
"32 32 20 1",
" 	c None",
".	c #17111A",
"+	c #372538",
"@	c #FFFFFF",
"#	c #E45454",
"$	c #3898FF",
"%	c #7884AB",
"&	c #575471",
"*	c #D8DDE0",
"=	c #74707D",
"-	c #B2BCC2",
";	c #17111B",
">	c #E14141",
",	c #667296",
"'	c #97A3AB",
")	c #2D65A8",
"!	c #AD313D",
"~	c #243B61",
"{	c #95A0B7",
"]	c #7A213A",
"                                ",
"                                ",
"                                ",
"                                ",
"     ......          ......     ",
"   ..+@@@+#...    ...@@@@@+..   ",
"   .$+@%&+##+*.  .@@@@%=%@+$.   ",
"   .$+@@@+##+*@..@@&%-@@@@+$.;  ",
"   .$+@=%+#>+,@-'@&@@@%%-@+$.;  ",
"   .$+@@@+#>+*@-'@@-&%@@@@+).;  ",
"   .$+@%-+>>+'@-'@=@@@-%&@+$.;  ",
"   .$+@@@+>>+*@-'@@%&-@@@@+).;  ",
"   .$+@=%-+>>+*-'@%@@@%&=@+).;  ",
"   .$+@@@@+>>+*-'@@=%-@@@@+).;  ",
"   .$+@**@+>>+*-'@&@@@@**@+).;  ",
"   .$+@%%*+>!+*-'@@****%%@+).;  ",
"   .)+---%+>!+*-'@*%%%%---+).;  ",
"   .)~++--+>!+*-'*&-----++~).;  ",
"    .))~+++!!+&&&&{{{+++~)).;;  ",
"    ;..))~+!]+{{'{{++~~))..;;;  ",
"     ;;..)+!]++++++~~))..;;;;   ",
"      ;;;.+!]+~~~~~))..;;;;;    ",
"        ;;.]]+)))))..;;;;;      ",
"          .]]+.....;;;;;        ",
"          .]].;;;;;;;;          ",
"          .]].;;;;;;            ",
"          ....;                 ",
"           ;;;;                 ",
"           ;;;;                 ",
"                                ",
"                                ",
"                                "};
