/* XPM */
static char * enemyu1_xpm[] = {
"32 32 12 1",
" 	c None",
".	c #555836",
"+	c #959963",
"@	c #BABE95",
"#	c #E4E6D1",
"$	c #FFFFFF",
"%	c #979799",
"&	c #D2D2D6",
"*	c #323234",
"=	c #767678",
"-	c #545456",
";	c #534721",
"                                ",
"                                ",
"                                ",
"                                ",
"             .......            ",
"           ..++@@@++..          ",
"          .+@@#####@@+.         ",
"         .+@##$$$$$##@+.        ",
"         .@##$$$$$$$##@.        ",
"        .+@#$$$$$$$$$#@+.       ",
"        .@##$$$$$$$$$##@.      %",
"        .@##$$$$$$$$$##@.     %%",
"        .@##$$$$$$$$$##@.    %&%",
"        .@###$$$$$$$###@.   %&&%",
"        .@@###########@@.   %&&%",
"        .++#@@@@@@@@@#++.  %&&&%",
"        .++@@+++++++@@++.  %&&% ",
"         .+++.......+++.   %&&% ",
"      ***......+@+......  %&&%  ",
"     *==.++@@+.+++.+@@++. %&&%  ",
"     *=.+@$$$#+@#@+#$$$@+.&&%   ",
"     *=.@#@$$$@+@+@$$$@$$.&&%   ",
"     *.+#+.@$$+@#@+$$@.+#@..**  ",
"     *.+@@.+@@+.@.+@@+..#$$@.-  ",
"     *=.++..++.+$+.++.$$.$$#.*  ",
"     *=;...@$#.+#+.#$@.$.##@.   ",
"     *=;;;.+#$$.@.$$@+.$$...    ",
"     *=-;;;.+@@+++@@+.          ",
"      *=-;;.#$.....++.          ",
"       *=--.@#@. .++@.          ",
"        ***.#$$+  ...           ",
"           .$$$+                "};
