/* XPM */
static char * enemyu3_xpm[] = {
"32 32 14 1",
" 	c None",
".	c #555836",
"+	c #959963",
"@	c #BABE95",
"#	c #E4E6D1",
"$	c #FFFFFF",
"%	c #979799",
"&	c #D2D2D6",
"*	c #323234",
"=	c #545456",
"-	c #534721",
";	c #B7B7BB",
">	c #6E5E2C",
",	c #767678",
"                                ",
"                                ",
"                                ",
"                                ",
"             .......            ",
"           ..++@@@++..          ",
"          .+@@#####@@+.         ",
"         .+@##$$$$$##@+.        ",
"         .@##$$$$$$$##@.        ",
"        .+@#$$$$$$$$$#@+.       ",
"        .@##$$$$$$$$$##@.       ",
"        .@##$$$$$$$$$##@.       ",
"        .@##$$$$$$$$$##@.%      ",
"        .@###$$$$$$$###@.%      ",
"        .@@###########@@.%      ",
"        .++#@@@@@@@@@#++.%      ",
"        .++@@+++++++@@++.%      ",
"         .+++.......+++.&%      ",
"   **    ......+@+......&%      ",
"   *=** .++@@+.+++.+@@++.%      ",
"   *=%=**@$$$#+@#@+#$$$@+.      ",
"   *-=%;*$@$$$@+@+@$$$@#@.      ",
"   *->-;*+.@$$+@#@+$$@.+#+.*    ",
"   *=>-;*..+@@+.@.+@@+.@@+.*    ",
"   *=%%;*  .++.+$+.++..++.*     ",
"   *-,%;* .@$#.+#+.#$@...       ",
"   *->-;* .+@$$.@.$$#+.         ",
"   *=>-;*  .+@@+++@@+.          ",
"    *>%*   .++.....$#.          ",
"    *%=*   .@++.$.@#@.          ",
"     **     ...  +$$#.          ",
"                 +$$$.          "};
