/* XPM */
static char * enemyr2_xpm[] = {
"32 32 17 1",
" 	c None",
".	c #555836",
"+	c #959963",
"@	c #BABE95",
"#	c #E4E6D1",
"$	c #FFFFFF",
"%	c #E5E3E3",
"&	c #B1ABAD",
"*	c #979799",
"=	c #7D7375",
"-	c #2E1E22",
";	c #B7B7BB",
">	c #D2D2D6",
",	c #323234",
"'	c #767678",
")	c #545456",
"!	c #534721",
"                                ",
"             .......            ",
"           ..++@@@++..          ",
"          .+@@#####@@+.         ",
"         .+@#########@+.        ",
"         .@###$$$$$$##@.        ",
"        .+@##$$$$$$$$##+.       ",
"        .@##$$$$$$$$$$#@.       ",
"        .@###$$######$##.       ",
"        .@@###@#$$$$$#$#.       ",
"        .@@@@@#$$%&&%$#@.*      ",
"        .+@@@+#$%=--=%$@**      ",
"        .++++@#$&----&$*$*      ",
"         .++@#$$&----&*$$*      ",
"          ..++@$%=--=*$$;       ",
"            .++@$%&&*$$$*       ",
"             .+++#+*$$>*        ",
"             .....*$$>*,,       ",
"            .@#@#*$$>*''),      ",
"            .,$#*$$>*.'!),      ",
"            ,',*$$>*@.'!),      ",
"            ,*'$$>*+.,'!),      ",
"           .#,*'>*.. ,''),      ",
"           .#$)*'),. ,''),      ",
"           .@$$)**', ,'!),      ",
"            ...@,,,  ,'!),      ",
"             .++#+.  ,'!),      ",
"             .@#$#.   ,',       ",
"             .@#$$.    ,        ",
"              ....              ",
"                                ",
"                                "};
