/* XPM */
static char * enemyr1_xpm[] = {
"32 32 18 1",
" 	c None",
".	c #555836",
"+	c #959963",
"@	c #BABE95",
"#	c #E4E6D1",
"$	c #FFFFFF",
"%	c #E5E3E3",
"&	c #B1ABAD",
"*	c #7D7375",
"=	c #2E1E22",
"-	c #979799",
";	c #D2D2D6",
">	c #323234",
",	c #B7B7BB",
"'	c #545456",
")	c #767678",
"!	c #6E5E2C",
"~	c #534721",
"                                ",
"                                ",
"             .......            ",
"           ..++@@@++..          ",
"          .+@@#####@@+.         ",
"         .+@#########@+.        ",
"         .@###$$$$$$##@.        ",
"        .+@##$$$$$$$$##+.       ",
"        .@##$$$$$$$$$$#@.       ",
"        .@###$$######$##.       ",
"        .@@###@#$$$$$#$#.       ",
"        .@@@@@#$$%&&%$#@.       ",
"        .+@@@+#$%*==*%$@.       ",
"        .++++@#$&====&$#.       ",
"         .++@#$$&====&$#.       ",
"          ..++@$%*==*%+@.       ",
"            .++@$%&&%#@.        ",
"             .+++#+%.+------    ",
"             .......--;$$$->    ",
"            >@#@#$--;$$$,-'>    ",
"           >)>$#--;$$$--!~'>    ",
"           >-'--;$$$,->,!)'>    ",
"         ..>-);$$$--. >,-)'>    ",
"        .+$$'-$$,-..  >,-~'>    ",
"        .@$$'-'>#@+.  >,!~'>    ",
"         .@@>'->@#$.. >-!~'>    ",
"          ..+>->.@#$#. >,~>     ",
"           .++> .++#$$.>-)>     ",
"            ...  .@$$$. >>      ",
"                  ....          ",
"                                ",
"                                "};
