/* XPM */
static char * exit1_xpm[] = {
"32 32 138 2",
"  	c None",
". 	c #6D7166",
"+ 	c #747B72",
"@ 	c #72766C",
"# 	c #6C736C",
"$ 	c #7A7D73",
"% 	c #7D8175",
"& 	c #646B64",
"* 	c #5C625C",
"= 	c #9EA29E",
"- 	c #74796E",
"; 	c #6A6E64",
"> 	c #A3A5A2",
", 	c #4D534E",
"' 	c #606761",
") 	c #7B837C",
"! 	c #555A54",
"~ 	c #778078",
"{ 	c #676F69",
"] 	c #747776",
"^ 	c #84897E",
"/ 	c #65695F",
"( 	c #5B5C55",
"_ 	c #58493D",
": 	c #6B5141",
"< 	c #765B49",
"[ 	c #856350",
"} 	c #5C554C",
"| 	c #6E7671",
"1 	c #81857B",
"2 	c #A7ADA9",
"3 	c #45413B",
"4 	c #8C4D2B",
"5 	c #9D5C32",
"6 	c #AC633A",
"7 	c #9C5333",
"8 	c #C27343",
"9 	c #B3643C",
"0 	c #7C4228",
"a 	c #52564E",
"b 	c #5C6563",
"c 	c #4E4238",
"d 	c #854924",
"e 	c #B96E40",
"f 	c #CB7D46",
"g 	c #AB6A39",
"h 	c #DD8D51",
"i 	c #CD7E49",
"j 	c #A66738",
"k 	c #A25B34",
"l 	c #707267",
"m 	c #A16234",
"n 	c #CE8149",
"o 	c #D6894C",
"p 	c #BE7940",
"q 	c #E79A57",
"r 	c #D8864C",
"s 	c #D98B4E",
"t 	c #BE7441",
"u 	c #D38046",
"v 	c #858C83",
"w 	c #959B93",
"x 	c #824724",
"y 	c #B36A35",
"z 	c #D3844B",
"A 	c #C27B42",
"B 	c #92542E",
"C 	c #62665E",
"D 	c #BB763F",
"E 	c #DB914E",
"F 	c #E29453",
"G 	c #C18042",
"H 	c #BA6A3D",
"I 	c #787B6F",
"J 	c #7B5432",
"K 	c #C36F3D",
"L 	c #CE8047",
"M 	c #73553E",
"N 	c #747F7A",
"O 	c #91592D",
"P 	c #DE9252",
"Q 	c #754E2E",
"R 	c #7D8782",
"S 	c #8A8E83",
"T 	c #996133",
"U 	c #BD7A3E",
"V 	c #8B6238",
"W 	c #965C31",
"X 	c #93693B",
"Y 	c #525B5B",
"Z 	c #4A5656",
"` 	c #B4713D",
" .	c #876037",
"..	c #525651",
"+.	c #A4A9A5",
"@.	c #B46D3C",
"#.	c #848D88",
"$.	c #BD8867",
"%.	c #CE8E66",
"&.	c #926535",
"*.	c #D07F49",
"=.	c #5C686F",
"-.	c #74665D",
";.	c #696D69",
">.	c #4D5A5B",
",.	c #AF7C51",
"'.	c #8D8F90",
").	c #6B4529",
"!.	c #5F6965",
"~.	c #C97643",
"{.	c #906441",
"].	c #5F676C",
"^.	c #523721",
"/.	c #51483F",
"(.	c #624A38",
"_.	c #664227",
":.	c #57625F",
"<.	c #975232",
"[.	c #84442B",
"}.	c #AB5C39",
"|.	c #743D25",
"1.	c #7C4325",
"2.	c #A0523A",
"3.	c #874D29",
"4.	c #673623",
"5.	c #954E32",
"6.	c #89452E",
"7.	c #7A3E24",
"8.	c #5C3B27",
"9.	c #582714",
"0.	c #6A2D16",
"a.	c #53230C",
"b.	c #873B25",
"c.	c #6C3017",
"d.	c #79351C",
"e.	c #6D2E19",
"f.	c #622912",
"g.	c #502C17",
"                                                                ",
"                                                                ",
"                            . + @ .                             ",
"                          # $ % $ & *                           ",
"                          = - $ $ ; +                           ",
"                      > # , . # $ + ' # )                       ",
"                ; . ! ~ + { & ) ) # ] . @ ! ^ /                 ",
"              ( - + + ; - _ : < [ : } | ' ^ 1 1 1               ",
"              2 ( + ) 3 4 5 6 7 8 9 9 0 ! ^ 1 a                 ",
"              ; # b c d e e f g h i i j k 3 * ^ !               ",
"            ) l 1 c k m n n o p q r s t u k } v l w             ",
"            ; & { x 8 y z z h p q z o A s A B C & /             ",
"            ; $ } y z D E h o p F n z p o G H C I C             ",
"            * b J K o A E s z p F i h p s L K M * !             ",
"          - $ N O r s G P o o p F s h G h z r Q R S $           ",
"          + 1 { T r s K P z n U E E o p F z r V N % %           ",
"          . @ # W z o A P n n U E h z A h L r X R - @           ",
"          , Y Z W z z t P f n ` P z z U s i r  .Y ! ..          ",
"          +.S + W z z ` o L n @.s n z ` z f u  .#./             ",
"          = . + W r n U o L n U z f L A u $.%.&.~ *             ",
"          +.& b W u z @.z n z @.h i *.U y =.-.&.;.a             ",
"          # & >.T z n ` E i z D P L z U ,.b '.).!.' {           ",
"          I ) # W z ~.` o z z j s L n U {.].b ^.] l ^           ",
"          $ % ].W i 8 5 z i i g z ~.i j 5 /.(._.v % %           ",
"          + @ :.7 ~.e <.f t ~.m n H K T 8 K K J ~ + @           ",
"          ;.* b [.}.}.4 8 9 9 W 8 k 9 B }.B B Q b * ]           ",
"          +.. + |.7 <.1.e 2.}.<.9 <.7 3.<.1.[.Q v *             ",
"          > # # 4.[.[.4.5.6.5.0 2.0 [.|.[.|.7.8.N ;             ",
"            a , 9.0.0.a.b.c.d.c.b.0.e.a.c.f.f.g.* *             ",
"                                                                ",
"                                                                ",
"                                                                "};
