/* XPM */
static char * exit5_xpm[] = {
"32 32 53 1",
" 	c None",
".	c #636663",
"+	c #727572",
"@	c #71766D",
"#	c #6E726B",
"$	c #7F8279",
"%	c #818477",
"&	c #595D55",
"*	c #C9CBC9",
"=	c #61655D",
"-	c #7A7D73",
";	c #4D524C",
">	c #82857B",
",	c #5D635C",
"'	c #545751",
")	c #767A73",
"!	c #75796F",
"~	c #888988",
"{	c #555A54",
"]	c #85897E",
"^	c #7D8176",
"/	c #838583",
"(	c #868A82",
"_	c #323431",
":	c #424641",
"<	c #464A44",
"[	c #3D423C",
"}	c #696D65",
"|	c #888B7F",
"1	c #5B6056",
"2	c #4B4E4A",
"3	c #0A0A0A",
"4	c #000000",
"5	c #232423",
"6	c #8D9186",
"7	c #666A63",
"8	c #1B1C1B",
"9	c #9FA19E",
"0	c #2A2B2A",
"a	c #51554E",
"b	c #121312",
"c	c #717467",
"d	c #8A8E82",
"e	c #787A6F",
"f	c #30332F",
"g	c #6A6C6A",
"h	c #2E302E",
"i	c #4F5451",
"j	c #595E59",
"k	c #383D3A",
"l	c #797979",
"m	c #3F3F40",
"n	c #9C9C9C",
"                                ",
"                                ",
"                                ",
"             .+@+.              ",
"             #$%#&*             ",
"             =--#;              ",
"        .  >,')!-&#@  ~         ",
"       #-'#)-{]>$#-#{^-/        ",
"      ~#)-,(=_:<:[@-}|]1        ",
"       2)^#3444444456]@#        ",
"      $^,744444444448=#7        ",
"      &^#44444444444486]{       ",
"     9,-04444444444444a};       ",
"     !!+44444444444444b$c9      ",
"     2}<444444444444444.=@      ",
"    &$d_444444444444444.]]'     ",
"    e%ef444444444444444g-$=     ",
"    7!>h444444444444444@--&     ",
"    :;10444444444444444ij;k     ",
"     .9f444444444444444#>+      ",
"     ;6f444444444444444#@+      ",
"     ;-h444444444444444==@      ",
"    ,j,0444444444444444i.{.*    ",
"    @>d_444444444444444g#]=     ",
"    @>eh444444444444444+e%=     ",
"    }^@h444444444444444.%^a     ",
"    $;#04444443333333342.j)     ",
"     a>_44433343bb50055@!)      ",
"     &^_4333b0_2.gggl+.=@)      ",
"     [&84448m.~nn      k}g      ",
"                                ",
"                                "};
