/* XPM */
static char *result[] = {
/* columns rows colors chars-per-pixel */
"32 32 4 1 ",
"  c #634E3B",
". c #7E604B",
"X c #9D725C",
"o c #B28D5F",
/* pixels */
"  ..XX.. .XXX..  XXXXXX. oXXXXX ",
" XXXXXX. XXXXXX. oXXXXXX. oooX  ",
"XXXXXXXX XXXXXXX oXXXXXX.       ",
"oXXXXXXX oXXXXXX. oXXXXX .XXX.. ",
" oXXXXX. oXXXXXX.  oooX .XXXXXX.",
"  oooX.  oXXXXX. ....   XXXXXXXX",
"  ....    oXXXX .XXXXX. oXXXXXXX",
" .XXXXX..  ooo XXXXXXXX. ooooXX ",
"oXXXXXXXX.     oXXXXXXX.        ",
"oXXXXXXXX. .... oXXXXXX. ..XXX. ",
" oXXXXXXX .XXXX. oXXXX. .XXXXXX.",
"  oooXX. .XXXXXX. oooX XXXXXXXX.",
".....    XXXXXXX.      oXXXXXX. ",
"XXXXX... oXXXXXXX .XXX. oXXXXX X",
"XXXXXXX..oXXXXXXX XXXXX. oXXo oX",
"XXXXXXXX. oXXXXX XXXXXXX. oo oXX",
"XXXXXXX.   oooo  oXXXXXXX.   oXX",
"XXXXX.  ...    .. oXXXXXX. .. oX",
"XXXX  .XXX.  .XXX. oXXXX. .XX. o",
"ooo .XXXXXX .XXXXX. oooo .XXXX. ",
"   XXXXXXXX XXXXXXX     .XXXXXX.",
".  oXXXXXXX oXXXXXX .. XXXXXXXXX",
".  oXXXXXX  oXXXXX .XX oXXXXXXXX",
" .. ooXXo  ..oXXo XXXX. oXXXXXXX",
".XXX. oo .XXX.oo XXXXXX. oXXXXX ",
"XXXXXX. .XXXXX.  oXXXXXX. oooX  ",
"XXXXXXX XXXXXXX. oXXXXXXX      X",
"XXXXXXX oXXXXXXX. oXXXXXX  ..  o",
"XXXXXXX oXXXXXXXX  oXXXXX .XX. o",
"XXXXXX.  oXXXXXXX   oooX .XXXX.o",
"oXXXoo    oooooX  ..     XXXXXX ",
" ooo      ...    .XXX..  oXXXXX "
};
