/* XPM */
static char * herou2_xpm[] = {
"32 32 14 1",
" 	c None",
".	c #323234",
"+	c #545456",
"@	c #767678",
"#	c #979799",
"$	c #B7B7BB",
"%	c #910000",
"&	c #C70000",
"*	c #FF5F60",
"=	c #4C3400",
"-	c #B19D00",
";	c #806800",
">	c #444444",
",	c #6D6D6E",
"            .......             ",
"          ..++@@@++..           ",
"         .+@@#####@@+.          ",
"        .+@###$$$###@+.         ",
"       .+@###$$$$$###@+.        ",
"      .+@###$$$$$$$###@+.       ",
"      .@@###$$$$$$$###@@.       ",
"     .+@#####$$$$$#####@+.      ",
"     .+@###############@+.      ",
"     .+@###############@+.      ",
"    .@.+@#############@+.@.     ",
"    .@.+@@###########@@+.@.     ",
"    .+.++@@@#######@@@++.+.     ",
"    ...+++@@@@@@@@@@@+++...%    ",
"     .++++++@@@@@@@++++++.&*%   ",
"     .+@+++++++++++++++@+.&&&=  ",
"      .+@@+++++++++++@@+.---;=  ",
"     .+..+@@@#####@@@+..+.;;=   ",
"    .@.>>...+++++++...>>.@.=    ",
"    .+.>>++>>>>>>>>>++>>.+.=    ",
"     .>>>++>>+++++>>++>>>.;=    ",
"    ..>>++,>+,+++,+>,+>>>..     ",
"    .>>>++,>+,,,,,+>,++>>>.     ",
"    .>>>++,>,,,,,,,>,++>>>.     ",
"    .>>+++,>,,,,,,,>,+++>>.     ",
"    .>>++,,+,,,,,,,+,,++>>.     ",
"    .>>++,,,,,,,,,,,,,++>>.     ",
"    .>>++,,,,,,,,,,,,,++>>.     ",
"     .>+++,,,,,,,,,,,+++>.      ",
"      ..>>++,,,,,,,++>>..       ",
"        ...>>>>>>>>>...         ",
"                                "};
