/* XPM */
static char * heror2_xpm[] = {
"32 32 25 1",
" 	c None",
".	c #323234",
"+	c #545456",
"@	c #767678",
"#	c #979799",
"$	c #B7B7BB",
"%	c #2E1E22",
"&	c #FDF0C5",
"*	c #910000",
"=	c #EEDAB3",
"-	c #DDBD9C",
";	c #7A6843",
">	c #4C3400",
",	c #FF5F60",
"'	c #FFBBBD",
")	c #B19D00",
"!	c #C70000",
"~	c #6D6D6E",
"{	c #E5D300",
"]	c #444444",
"^	c #806800",
"/	c #8B5E4A",
"(	c #A77E5D",
"_	c #77584A",
":	c #534721",
"                                ",
"            .......             ",
"          ..++@@@++..           ",
"         .+@@#####@@+.          ",
"        .+@###$$$###@+.         ",
"       .+@###$$$$$###@+.        ",
"      .+@###$$$$$$$###@+.       ",
"      .@@###$$$$$$$###@@.       ",
"     .+@#####$$$$$#####@+.      ",
"     .+@######@...@@##@+..      ",
"     .+@#####@.@##+++++.#+.     ",
"     .+@@#@++.@#$$$$$$##@+.     ",
"     .+@@@+#$+@$%@####@@+.      ",
"     .++@.#++$+$+%%%%%%%%..     ",
"     .+++.@..#+#$+%%%%%%%+.     ",
"     .+++.+..#.+#$$$###@+.      ",
"      .+++.+@..&+@##@@+..       ",
"       .+++..+.&&***=-;         ",
"       .++++@+.=>,',*;          ",
"      .+@#$@+.;>)!,,*           ",
"       ......~~>{!!!>.          ",
"        .]+##@+>^{{^>.          ",
"       .]+~....>)^>>..          ",
"       .]~~+$#>))>+@+.          ",
"       .+~~@#>^)>++..           ",
"      .]+~~/(()>+$#@.           ",
"      .]~~~_((:#.##@.           ",
"      .]~~>^>:@@..#+.           ",
"      .]~>^>:+..+...            ",
"      .]~>>.:_/(/:              ",
"       .~+. :_/((:              ",
"        ..   ::::               "};
