/* XPM */
static char * herou1_xpm[] = {
"32 32 16 1",
" 	c None",
".	c #323234",
"+	c #545456",
"@	c #767678",
"#	c #979799",
"$	c #B7B7BB",
"%	c #910000",
"&	c #C70000",
"*	c #4C3400",
"=	c #444444",
"-	c #806800",
";	c #6D6D6E",
">	c #A77E5D",
",	c #8B5E4A",
"'	c #534721",
")	c #77584A",
"                                ",
"                                ",
"             .......            ",
"           ..++@@@++..          ",
"          .+@@#####@@+.         ",
"         .+@###$$$###@+.        ",
"        .+@###$$$$$###@+.       ",
"       .+@###$$$$$$$###@+.      ",
"       .@@###$$$$$$$###@@.      ",
"      .+@#####$$$$$#####@+.     ",
"      .+@###############@+.     ",
"      .+@###############@+.     ",
"     .@.+@#############@+.@.    ",
"     .@.+@@###########@@+.@.    ",
"     .+.++@@@#######@@@++.+.    ",
"     ...+++@@@@@@@@@@@+++...    ",
"      .++++++@@@@@@@++++++.     ",
"      .+@+++++++++++++++@+.     ",
"       .+@@+++++++++++@@+. %%%  ",
"      .+..+@@@#####@@@+..+.&&%* ",
"     .@.==...+++++++....$#@.-%* ",
"     .+.=============+;+.$+.**  ",
"      .====+==++++==++;+.@@+.   ",
"      .===++==+++;+=++;;+.>,'   ",
"      .===++=++;;;+=++;;;.>,'   ",
"     .===++==+;;;;+=+;;;;+.)'   ",
"    .====++=+;;;;;;=+;;;;;.'    ",
"    .===++++;;;;;;;++;;;;;+.    ",
"     .==+++;;;;;;;;;+;;;;;;+.   ",
"     .===+;;;;;;;+;;;;;;;;+=.   ",
"      ...++;;;;;++++;;;;+=..    ",
"         ..===++++++====..      "};
