/* XPM */
static char * herod2_xpm[] = {
"32 32 26 1",
" 	c None",
".	c #323234",
"+	c #545456",
"@	c #767678",
"#	c #979799",
"$	c #B7B7BB",
"%	c #2E1E22",
"&	c #910000",
"*	c #FFBBBD",
"=	c #4C3400",
"-	c #C70000",
";	c #FF5F60",
">	c #B19D00",
",	c #DDBD9C",
"'	c #EEDAB3",
")	c #FDF0C5",
"!	c #806800",
"~	c #E5D300",
"{	c #7A6843",
"]	c #CA9E73",
"^	c #444444",
"/	c #6D6D6E",
"(	c #534721",
"_	c #A77E5D",
":	c #8B5E4A",
"<	c #77584A",
"                                ",
"             .......            ",
"           ..++@@@++..          ",
"          .+@@#####@@+.         ",
"         .+@###$$$###@+.        ",
"        .+@###$$$$$###@+.       ",
"       .+@###$$$$$$$###@+.      ",
"       .@@###$$$$$$$###@@.      ",
"      .+@#####$$$$$#####@+.     ",
"      .+@..+@@#####@@+..@+.     ",
"      .+.+#..+++++++..#+.+.     ",
"     .@.+@@##$$$$$$$##@@+.@.    ",
"     .@.++%+@@#####@@+%++.@.    ",
"     .+.+#+%%%%%%%%%%%+#+.+.    ",
"    &&..+@#+%%%%%%%%%+#@+...    ",
"   &**&..+@##$$$$$$$##@+...     ",
"  =-;;-=+..+@@#####@@+..++.     ",
"  =>-->=+@.,')))))))',.@+.      ",
"   !~~!+...{],''''',]{...+.     ",
"    =!=#$^^^{{{{{{{{{^^^$#@.    ",
"    =>=##$++++/@@@/++++$##+.    ",
"    =>!=+..++/$###$/++..++.     ",
"     !>=#@.@##@+++@##@.@#$@.    ",
"     =>=@+...++@#@++...+@##.    ",
"     (__+..++..+++..++..+__(    ",
"     (::..+@$@+$$$+@$@+..::(    ",
"     .((=.+#$.@#$#@.$#+..((.    ",
"     .=!=^.#.+.@#@.+.#.^.//.    ",
"     .=!=^^.+$@...@$+.^^.//.    ",
"      .==..(::<(.(<::(.../.     ",
"       .   (__:( (:__(   .      ",
"            (((   (((           "};
