/* XPM */
static char * skull_xpm[] = {
"32 32 14 1",
" 	c None",
".	c #17111A",
"+	c #FFFFFF",
"@	c #87797B",
"#	c #DBD5D7",
"$	c #B6AAAD",
"%	c #BE6D52",
"&	c #3E375C",
"*	c #B2BCC2",
"=	c #6E769D",
"-	c #525278",
";	c #7884AB",
">	c #753939",
",	c #9AA3C0",
"                                ",
"                                ",
"                                ",
"      ..                        ",
"      .+.                       ",
"      .++.                      ",
"   ...@++#.                     ",
"   .+++$##.                     ",
"    .###$#.     ....            ",
"     .###%.   ..++++.           ",
"      ....%. .+++++++.          ",
"          .%.+++++++++.         ",
"           .&&++++++++*.        ",
"           .==&++++++++*.       ",
"           .--&+&&&+++++*.      ",
"          .*&&*&==-&++++*.      ",
"         .++**+&=--&++++*.      ",
"         .+-&++&---&++++*.      ",
"        .++*-++*&&&*++++*.      ",
"        .+;+*+++***++++*.       ",
"        .-++++++++++++*.        ",
"         .++;++++;***&.         ",
"          .-++++-***.>%.        ",
"           .*++*.... .>%.  ..   ",
"            .**.      .>%..;.   ",
"             ..        .>;;-.   ",
"                       .;,--.   ",
"                      .;,;--.   ",
"                      .;;;;-.   ",
"                      .......   ",
"                                ",
"                                "};
