/* XPM */
static char * STEPS_xpm[] = {
"100 14 22 1",
" 	c None",
".	c #F2031E",
"+	c #2204F2",
"@	c #2303F2",
"#	c #2302F2",
"$	c #2203F2",
"%	c #2304F2",
"&	c #2404F3",
"*	c #2404F1",
"=	c #2202F3",
"-	c #2303F3",
";	c #2403F1",
">	c #2304F3",
",	c #2403F3",
"'	c #2203F3",
")	c #2202F1",
"!	c #2303F1",
"~	c #2203F1",
"{	c #2403F2",
"]	c #2404F2",
"^	c #2402F2",
"/	c #2302F3",
"....................................................................................................",
"....................................................................................................",
"...+@@#...@@@@@@@@@.@@@@@@#..@@@@$%...+@@#.......@@@@@@@@@..@@.....@@....@&.@@@@@@#..@@*....@.......",
"..$#...=......@.....@@.......@@...@-.$#...=..........@.....;@@.....@@...@...@@.......@@@....@.......",
"..@...........@.....@@.......@@...>-.@...............@.....@.,%....@@..@....@@.......@');...@.......",
"..@@..........@.....@@.......@@...>-.@@..............@.....!..@....@@.@.....@@.......@-.@...@...@...",
"...$@@........@.....@@@@@@$..@@...@~..$@@............@....$=..@....@@@......@@@@@@$..@-.@{..@...@...",
".....~%@......@.....@@.......@@@@@+.....~%@..........@....@...]@...@#%#.....@@.......@-..@..@.......",
".......@-.....@.....@@.......@@...........@-.........@...]@@@@@@...@@.##....@@.......@-..!$.@.......",
"........@.....@.....@@.......@@............@.........@...@.....$...@@..^%...@@.......@-...@]@.......",
"..$....%!.....@.....@@.......@@......$....%!.........@...@......@..@@.../%..@@.......@-...~@@...@...",
"...!@@@>......@.....@@@@@@$..@@.......!@@@>..........@..$@......@..@@....@%.@@@@@@$..@-....@@...@...",
"....................................................................................................",
"...................................................................................................."};
