/* XPM */
static char * stone_xpm[] = {
"32 32 11 1",
" 	c None",
".	c #17111A",
"+	c #B2BCC2",
"@	c #77788E",
"#	c #3E375C",
"$	c #51527E",
"%	c #646EA1",
"&	c #626486",
"*	c #8792B1",
"=	c #2B243C",
"-	c #100C16",
"                                ",
"                                ",
"                                ",
"                                ",
"             ....               ",
"           ..++@@....           ",
"         ..++++++++++...        ",
"        .+++++++++++++++..      ",
"      ..++++++++++++++++++..    ",
"     .+++++++++++++++++++++@.   ",
"    .@++++++++++++++#++++++$.   ",
"   .+++++++++++++++++#+++%$$.   ",
"   .&&*+++++++++++++++++%%%$.   ",
"   .&*****++++++++++++%%%%%$.   ",
"   .&*********++++++#%%%%%%$.   ",
"   .&***********&#$$%%%%%%%$.   ",
"   .&************&$%%%%%%%%$.   ",
"   .&************&$%%%%%%%%$.   ",
"   .&************&$%%%%%%%%$.   ",
"   .&************&$%%%%%%%%$.   ",
"   .&******##****&$%%%%%%%%$.   ",
"   .&****##**#***&$%%%%%%%%$=   ",
"   .&*********##*&$%#%%%%%$.    ",
"   .&***********#&$#%%%%%%.     ",
"    .&**********%##%%%%%-.      ",
"     ..***.******%$%%%%.        ",
"       ... ..****&$%%..         ",
"             ...&&$$.           ",
"                ....            ",
"                                ",
"                                ",
"                                "};
