/* XPM */
static char *_5c3fdf58a8f46368312a768d780ee27KOYjU9Z895tao5DU[] = {
/* columns rows colors chars-per-pixel */
"32 32 4 1 ",
"  c #986928",
". c #AD8100",
"X c #E7AE13",
"o c #FFC421",
/* pixels */
"XXX oXXXXXX oXXXXXX oXXXXXX oXXX",
"XXX oXXXXXX oXXXXXX oXXXXXX oXXX",
"ooo ooooooo ooooooo ooooooo oooo",
"   ....    ....    ....    .... ",
"XXXXXXX oXXXXXX oXXXXXX oXXXXXX ",
"XXXXXXX oXXXXXX oXXXXXX oXXXXXX ",
"ooooooo ooooooo ooooooo ooooooo ",
"...    ....    ....    ....    .",
"XXX oXXXXXX oXXXXXX oXXXXXX oXXX",
"XXX oXXXXXX oXXXXXX oXXXXXX oXXX",
"ooo ooooooo ooooooo ooooooo oooo",
"   ....    ....    ....    .... ",
"XXXXXXX oXXXXXX oXXXXXX oXXXXXX ",
"XXXXXXX oXXXXXX oXXXXXX oXXXXXX ",
"ooooooo ooooooo ooooooo ooooooo ",
"...    ....    ....    ....    .",
"XXX oXXXXXX oXXXXXX oXXXXXX oXXX",
"XXX oXXXXXX oXXXXXX oXXXXXX oXXX",
"ooo ooooooo ooooooo ooooooo oooo",
"   ....    ....    ....    .... ",
"XXXXXXX oXXXXXX oXXXXXX oXXXXXX ",
"XXXXXXX oXXXXXX oXXXXXX oXXXXXX ",
"ooooooo ooooooo ooooooo ooooooo ",
"...    ....    ....    ....    .",
"XXX oXXXXXX oXXXXXX oXXXXXX oXXX",
"XXX oXXXXXX oXXXXXX oXXXXXX oXXX",
"ooo ooooooo ooooooo ooooooo oooo",
"   ....    ....    ....    .... ",
"XXXXXXX oXXXXXX oXXXXXX oXXXXXX ",
"XXXXXXX oXXXXXX oXXXXXX oXXXXXX ",
"ooooooo ooooooo ooooooo ooooooo ",
"...    ....    ....    ....    ."
};
